<?xml version="1.0" encoding="utf-8"?>
<!-- Generator: Adobe Illustrator 26.0.2, SVG Export Plug-In . SVG Version: 6.00 Build 0)  -->
<svg version="1.1" id="Calque_1" xmlns="http://www.w3.org/2000/svg" xmlns:xlink="http://www.w3.org/1999/xlink" x="0px" y="0px"
	 viewBox="0 0 483.4 476.2" style="enable-background:new 0 0 483.4 476.2;" xml:space="preserve">
<path d="M226.5,54.2c-5.2,8.9-75,129.6-105.1,181.5c-1,1.5-1,3.4,0,4.9c29.5,50.8,89.2,153.9,89.8,154.8c0.6-1,60.3-104,89.8-154.8
	c1-1.4,1.1-3.4,0.1-4.8c-16.9-29-33.7-58-50.5-87c-1.1-1.5-1.1-3.6,0-5.1c4.6-7.7,9.1-15.5,13.8-23.6c0.7,1,45.3,78.1,67.3,115.9
	c1,1.3,1,3.1,0,4.4c-34.7,59.8-69.3,119.6-103.9,179.5c-0.7,1.6-2.3,2.5-4,2.3c-8.6-0.1-17.1-0.1-25.7,0c-1.3,0.2-2.6-0.6-3.2-1.8
	C160.3,360.1,125.5,300,90.7,239.9c-0.7-1-0.7-2.4,0-3.5c34.8-60.1,69.6-120.2,104.4-180.3c0.5-0.9,1.3-1.5,2.2-1.7
	C206.9,54.2,216.4,54.2,226.5,54.2z"/>
<path d="M266.1,91.1c-15.9,27.4-59.9,103.3-83.8,144.6c-1,1.5-1,3.4,0,4.9c16.8,29,33.7,58,50.5,87c1.1,1.5,1.1,3.6,0,5.1
	c-4.6,7.7-9.1,15.5-13.8,23.6c-0.6-1-45.3-78.1-67.2-115.9c-0.9-1.3-0.9-3.1,0-4.4c34.7-59.8,69.3-119.6,103.9-179.4
	c0.7-1.6,2.3-2.5,4-2.3c8.6,0.1,17.1,0.1,25.7,0c1.3-0.2,2.6,0.6,3.2,1.8c34.7,60.1,69.4,120.3,104.2,180.4c0.7,1,0.7,2.4,0,3.5
	c-34.8,60.1-69.6,120.2-104.4,180.3c-0.5,0.9-1.3,1.5-2.2,1.7c-9.6,0.1-19.1,0.1-29.1,0.1c0.7-1.2,70.5-122,105-181.5
	c1-1.5,1-3.4-0.1-4.9c-29.4-50.8-89.1-153.9-89.8-154.8C272,81,269.8,84.7,266.1,91.1"/>
</svg>
